<svg xmlns="http://www.w3.org/2000/svg" viewBox="0 0 1332 363.41"><defs><style>.cls-1,.cls-3,.cls-4,.cls-5,.cls-7{fill:none;stroke-miterlimit:10;stroke-width:10px;}.cls-1{stroke:#e9b52c;}.cls-2{fill:#e9b52c;}.cls-3{stroke:#61a749;}.cls-4{stroke:#dd2b28;}.cls-5{stroke:#0086bd;}.cls-6{fill:#0086bd;}.cls-7{stroke:#a24791;}.cls-8{fill:#dd2b28;}.cls-9{fill:#a24791;}</style></defs><title>Asset 2</title><g id="Layer_2" data-name="Layer 2"><g id="Capa_1" data-name="Capa 1"><line class="cls-1" x1="1086.99" y1="334.74" x2="1086.99" y2="249.52"/><circle class="cls-2" cx="1086.99" cy="334.56" r="18.37"/><path class="cls-1" d="M1051.79,34.29h-47.16c-6,0-10.9,10.34-10.9,23.1V212.86c0,12.76-4.88,23.1-17,23.1h-35.9"/><path class="cls-3" d="M565.64,35.57H612.8c6,0,10.9,10.35,10.9,23.11V214.14c0,12.76,4.88,23.11,16.95,23.11h35.91"/><line class="cls-4" x1="491.23" y1="344.66" x2="491.23" y2="259.43"/><path class="cls-5" d="M1093.57,174.73h198c14.07,0,25.48,11.69,25.48,26.12V339.6"/><ellipse class="cls-6" cx="1317.4" cy="345.13" rx="14.6" ry="14.97"/><path class="cls-7" d="M126,72.09H38.61A19.68,19.68,0,0,0,18.92,91.78V348.17"/><path class="cls-4" d="M424.47,35.57H360.4c-8.18,0-14.81,7.14-14.81,16V158.79c0,8.8-6.63,15.94-14.8,15.94H216.25"/><path class="cls-6" d="M233.68,171.57,323.63,289.8H231l-70.22-111h-.75v111H85.66V1.29h111.2q44.79,0,72.12,22.19T296.3,90.06q0,31-16.51,53.57T233.68,171.57ZM160.05,58.69v71.93h7.21q51.62,0,51.62-36t-51.62-36Z"/><path class="cls-6" d="M1121.72,1.29v225h89.92V289.8H1046.72V1.29Z"/><path class="cls-6" d="M573.71,63.78H484.86v48.4h84.27V176H484.86v49.95h88.85v63.77H410.12V0H573.71Z"/><rect class="cls-6" x="714.77" y="135.51" width="109.6" height="21.69" transform="translate(1249.34 -472.89) rotate(117)"/><rect class="cls-6" x="796.23" y="136.47" width="109.6" height="21.69" transform="translate(1106.14 972.46) rotate(-117)"/><circle class="cls-5" cx="810.04" cy="55.23" r="45.12"/><circle class="cls-5" cx="720.21" cy="235.65" r="42.88"/><circle class="cls-5" cx="901.97" cy="235.84" r="42.88"/><circle class="cls-6" cx="719.3" cy="235.23" r="18.37"/><circle class="cls-6" cx="902.09" cy="236" r="18.37"/><circle class="cls-6" cx="809.32" cy="55.14" r="18.37"/><circle class="cls-8" cx="491.23" cy="344.48" r="18.37"/><circle class="cls-9" cx="18.37" cy="345.04" r="18.37"/></g></g></svg>